# Blender v2.79 (sub 0) OBJ File: ''
# www.blender.org
mtllib selected.mtl
o Plane.002_Plane.006
v 1.000000 1.000000 0.575996
v 1.554454 1.894219 1.000000
v 1.000000 1.000000 -0.576192
v 1.554454 1.894219 -1.000000
vn -0.8499 0.5270 0.0000
usemtl Hexagon_MTRL
s off
f 1//1 2//1 4//1 3//1
o Plane.000_Plane.007
v -1.000000 1.000000 -0.575996
v -1.554454 1.894219 -1.000000
v -1.000000 1.000000 0.576191
v -1.554454 1.894219 1.000000
vn 0.8499 0.5270 -0.0000
usemtl Hexagon_MTRL
s off
f 5//2 6//2 8//2 7//2
o Plane.001_Plane.008
v 0.001173 1.000000 1.154022
v -0.088798 1.894219 1.846196
v 0.998997 1.000000 0.577929
v 1.643253 1.894219 0.846196
vn -0.4249 0.5270 -0.7360
usemtl Hexagon_MTRL
s off
f 9//3 10//3 12//3 11//3
o Plane.003_Plane.009
v -0.001173 1.000000 -1.154023
v 0.088798 1.894219 -1.846196
v -0.998996 1.000000 -0.577929
v -1.643252 1.894219 -0.846196
vn 0.4249 0.5270 0.7360
usemtl Hexagon_MTRL
s off
f 13//4 14//4 16//4 15//4
o Plane.004_Plane.010
v -0.998827 1.000000 0.578027
v -1.643252 1.894219 0.846196
v -0.001003 1.000000 1.154120
v 0.088798 1.894219 1.846196
vn 0.4249 0.5270 -0.7360
usemtl Hexagon_MTRL
s off
f 17//5 18//5 20//5 19//5
o Plane.005_Plane.011
v 0.998827 1.000000 -0.578027
v 1.643253 1.894219 -0.846196
v 0.001004 1.000000 -1.154120
v -0.088798 1.894219 -1.846196
vn -0.4249 0.5270 0.7360
usemtl Hexagon_MTRL
s off
f 21//6 22//6 24//6 23//6
