# This file uses centimeters as units for non-parametric coordinates.

mtllib Hexagon.mtl
g default
v 100.000031 -0.001405 -57.735008
v 0.000023 -0.001405 -115.470070
v -100.000000 -0.001405 -57.735043
v -100.000015 -0.001405 57.735031
v -0.000008 -0.001405 115.470070
v 100.000008 -0.001405 57.735031
v 100.000031 99.998595 -57.735008
v 0.000023 99.998595 -115.470070
v -100.000000 99.998595 -57.735043
v -100.000015 99.998595 57.735031
v -0.000008 99.998595 115.470070
v 100.000008 99.998595 57.735031
v 0.000000 99.998595 0.000000
vt 0.673030 0.002783
vt 0.820964 0.002783
vt 0.968899 0.002783
vt 0.229225 0.002783
vt 0.377160 0.002783
vt 0.525095 0.002783
vt 0.748273 0.995048
vt 0.251093 0.995048
vt 0.002502 0.564477
vt 0.251093 0.133906
vt 0.748274 0.133906
vt 0.996864 0.564477
vt 0.499683 0.564477
vt 0.673030 0.130898
vt 0.525095 0.130898
vt 0.377160 0.130898
vt 0.229225 0.130898
vt 0.081291 0.130898
vt 0.820964 0.130898
vt 0.081291 0.002783
vt 0.968899 0.130898
vn 0.500000 0.000000 -0.866025
vn 0.500000 0.000000 -0.866025
vn 0.500000 0.000000 -0.866025
vn 0.500000 0.000000 -0.866025
vn -0.500000 0.000000 -0.866026
vn -0.500000 0.000000 -0.866026
vn -0.500000 0.000000 -0.866026
vn -0.500000 0.000000 -0.866026
vn -1.000000 0.000000 -0.000000
vn -1.000000 0.000000 -0.000000
vn -1.000000 0.000000 -0.000000
vn -1.000000 0.000000 -0.000000
vn -0.500000 0.000000 0.866025
vn -0.500000 0.000000 0.866025
vn -0.500000 0.000000 0.866025
vn -0.500000 0.000000 0.866025
vn 0.500000 0.000000 0.866025
vn 0.500000 0.000000 0.866025
vn 0.500000 0.000000 0.866025
vn 0.500000 0.000000 0.866025
vn 1.000000 0.000000 0.000000
vn 1.000000 0.000000 0.000000
vn 1.000000 0.000000 0.000000
vn 1.000000 0.000000 0.000000
vn 0.000000 1.000000 -0.000000
vn -0.000000 1.000000 0.000000
vn 0.000000 1.000000 -0.000000
vn -0.000000 1.000000 0.000000
vn -0.000000 1.000000 0.000000
vn 0.000000 1.000000 -0.000000
vn -0.000000 1.000000 0.000000
vn 0.000000 1.000000 0.000000
vn 0.000000 1.000000 -0.000000
vn 0.000000 1.000000 0.000000
vn 0.000000 1.000000 -0.000000
vn 0.000000 1.000000 -0.000000
vn 0.000000 1.000000 -0.000000
vn 0.000000 1.000000 -0.000000
vn 0.000000 1.000000 -0.000000
vn 0.000000 1.000000 -0.000000
vn 0.000000 1.000000 -0.000000
vn 0.000000 1.000000 -0.000000
s off
g HexagonV2_GEO
usemtl HexagonV2_GEOSG
f 1/1/1 2/2/2 8/19/3 7/14/4
f 2/2/5 3/3/6 9/21/7 8/19/8
f 3/20/9 4/4/10 10/17/11 9/18/12
f 4/4/13 5/5/14 11/16/15 10/17/16
f 5/5/17 6/6/18 12/15/19 11/16/20
f 6/6/21 1/1/22 7/14/23 12/15/24
f 7/7/25 8/8/26 13/13/27
f 8/8/28 9/9/29 13/13/30
f 9/9/31 10/10/32 13/13/33
f 10/10/34 11/11/35 13/13/36
f 11/11/37 12/12/38 13/13/39
f 12/12/40 7/7/41 13/13/42
