# This file uses centimeters as units for non-parametric coordinates.

v 0.500000 0.000000 -0.288677
v 0.000001 0.000002 -0.577354
v -0.500000 -0.000000 -0.288677
v -0.500000 -0.000003 0.288673
v 0.000001 0.000000 0.577354
v 0.500000 0.000000 0.288673
v 0.500000 0.446266 -0.288677
v 0.000001 0.446266 -0.577354
v -0.500000 0.446266 -0.288673
v -0.500000 0.446266 0.288673
v 0.000001 0.446266 0.577354
v 0.500000 0.446266 0.288673
v 0.000001 0.446266 -0.000001
vt 0.673030 0.002783
vt 0.820964 0.002783
vt 0.820964 0.130898
vt 0.673030 0.130898
vt 0.968899 0.002783
vt 0.968899 0.130898
vt 0.081291 0.002783
vt 0.229225 0.002783
vt 0.229225 0.130898
vt 0.081291 0.130898
vt 0.377160 0.002783
vt 0.377160 0.130898
vt 0.525095 0.002783
vt 0.525095 0.130898
vt 0.748273 0.995048
vt 0.251093 0.995048
vt 0.499683 0.564477
vt 0.002502 0.564477
vt 0.251093 0.133906
vt 0.748274 0.133906
vt 0.996864 0.564477
vn 0.499981 0.000000 -0.866036
vn 0.499981 0.000000 -0.866036
vn 0.499981 0.000000 -0.866036
vn 0.499981 0.000000 -0.866036
vn -0.499981 0.000000 -0.866036
vn -0.499981 0.000000 -0.866036
vn -0.499981 0.000000 -0.866036
vn -0.499981 0.000000 -0.866036
vn -1.000000 0.000000 0.000000
vn -1.000000 0.000000 0.000000
vn -1.000000 0.000000 0.000000
vn -1.000000 0.000000 0.000000
vn -0.499981 0.000000 0.866036
vn -0.499981 0.000000 0.866036
vn -0.499981 0.000000 0.866036
vn -0.499981 0.000000 0.866036
vn 0.499981 0.000000 0.866036
vn 0.499981 0.000000 0.866036
vn 0.499981 0.000000 0.866036
vn 0.499981 0.000000 0.866036
vn 1.000000 0.000000 0.000000
vn 1.000000 0.000000 0.000000
vn 1.000000 0.000000 0.000000
vn 1.000000 0.000000 0.000000
vn 0.000000 1.000000 0.000000
vn 0.000000 1.000000 0.000000
vn 0.000000 1.000000 0.000000
vn 0.000000 1.000000 0.000000
vn 0.000000 1.000000 0.000000
vn 0.000000 1.000000 0.000000
vn 0.000000 1.000000 0.000000
vn 0.000000 1.000000 0.000000
vn 0.000000 1.000000 0.000000
vn 0.000000 1.000000 0.000000
vn 0.000000 1.000000 0.000000
vn 0.000000 1.000000 0.000000
vn 0.000000 1.000000 0.000000
vn 0.000000 1.000000 0.000000
vn 0.000000 1.000000 0.000000
vn 0.000000 1.000000 0.000000
vn 0.000000 1.000000 0.000000
vn 0.000000 1.000000 0.000000
s off
f 1/1/1 2/2/2 8/3/3 7/4/4
f 2/2/5 3/5/6 9/6/7 8/3/8
f 3/7/9 4/8/10 10/9/11 9/10/12
f 4/8/13 5/11/14 11/12/15 10/9/16
f 5/11/17 6/13/18 12/14/19 11/12/20
f 6/13/21 1/1/22 7/4/23 12/14/24
f 7/15/25 8/16/26 13/17/27
f 8/16/28 9/18/29 13/17/30
f 9/18/31 10/19/32 13/17/33
f 10/19/34 11/20/35 13/17/36
f 11/20/37 12/21/38 13/17/39
f 12/21/40 7/15/41 13/17/42
